<?xml version="1.0" encoding="utf-8"?>
<svg version="1.1" x="0px" y="0px" width="48px" height="48px" viewBox="0 0 48 48" xmlns="http://www.w3.org/2000/svg">
  <style type="text/css">
	.st2{fill:#CC0935;}
</style>
  <g id="Logos" transform="matrix(0.521739, 0, 0, 0.521739, -15.130429, -14.930429)">
    <g>
      <path class="st2" d="M72.4,38.2H56.3l2.8,13.6c0.5,2,1.4,3.1,3.7,3.1h12.9c21.5,0,25.6,4.7,25.6,20.5c0,15.7-6.1,19.7-25.6,19.7 h-8.3l3,13.6c0.4,2,1.4,3.1,3.6,3.1h1.5c24.5,0,45.5-4.1,45.5-36.3C121,43.7,103.6,38.2,72.4,38.2z"/>
      <path class="st2" d="M45.7,38.2H29l5,24.9c0.5,2,1.4,3.1,3.7,3.1h16.7l-5.1-24.9C48.9,39.3,47.9,38.2,45.7,38.2z"/>
    </g>
  </g>
</svg>